<mxfile host="app.diagrams.net" modified="2023-02-02T03:02:29.507Z" agent="5.0 (Windows NT 10.0; Win64; x64) AppleWebKit/537.36 (KHTML, like Gecko) Chrome/109.0.0.0 Safari/537.36" version="20.8.5" etag="A1bsd5nNUpblRA-v-1LI" type="github">
  <diagram id="TwkQe4twoqMB-WyglpBe" name="第 1 页">
    <mxGraphModel dx="1050" dy="573" grid="1" gridSize="10" guides="1" tooltips="1" connect="1" arrows="1" fold="1" page="1" pageScale="1" pageWidth="2339" pageHeight="3300" math="0" shadow="0">
      <root>
        <mxCell id="0" />
        <mxCell id="1" parent="0" />
        <mxCell id="4N7pQzZ8l51NXkNI6pOW-51" value="" style="group" vertex="1" connectable="0" parent="1">
          <mxGeometry x="150" y="190" width="300" height="300" as="geometry" />
        </mxCell>
        <mxCell id="4N7pQzZ8l51NXkNI6pOW-1" value="" style="rounded=0;whiteSpace=wrap;html=1;" vertex="1" parent="4N7pQzZ8l51NXkNI6pOW-51">
          <mxGeometry width="50" height="50" as="geometry" />
        </mxCell>
        <mxCell id="4N7pQzZ8l51NXkNI6pOW-2" value="" style="rounded=0;whiteSpace=wrap;html=1;" vertex="1" parent="4N7pQzZ8l51NXkNI6pOW-51">
          <mxGeometry x="50" width="50" height="50" as="geometry" />
        </mxCell>
        <mxCell id="4N7pQzZ8l51NXkNI6pOW-3" value="" style="rounded=0;whiteSpace=wrap;html=1;" vertex="1" parent="4N7pQzZ8l51NXkNI6pOW-51">
          <mxGeometry x="100" width="50" height="50" as="geometry" />
        </mxCell>
        <mxCell id="4N7pQzZ8l51NXkNI6pOW-4" value="" style="rounded=0;whiteSpace=wrap;html=1;" vertex="1" parent="4N7pQzZ8l51NXkNI6pOW-51">
          <mxGeometry x="100" width="50" height="50" as="geometry" />
        </mxCell>
        <mxCell id="4N7pQzZ8l51NXkNI6pOW-5" value="" style="rounded=0;whiteSpace=wrap;html=1;" vertex="1" parent="4N7pQzZ8l51NXkNI6pOW-51">
          <mxGeometry width="50" height="50" as="geometry" />
        </mxCell>
        <mxCell id="4N7pQzZ8l51NXkNI6pOW-8" value="" style="rounded=0;whiteSpace=wrap;html=1;" vertex="1" parent="4N7pQzZ8l51NXkNI6pOW-51">
          <mxGeometry x="200" width="50" height="50" as="geometry" />
        </mxCell>
        <mxCell id="4N7pQzZ8l51NXkNI6pOW-9" value="" style="rounded=0;whiteSpace=wrap;html=1;" vertex="1" parent="4N7pQzZ8l51NXkNI6pOW-51">
          <mxGeometry x="250" width="50" height="50" as="geometry" />
        </mxCell>
        <mxCell id="4N7pQzZ8l51NXkNI6pOW-10" value="" style="rounded=0;whiteSpace=wrap;html=1;" vertex="1" parent="4N7pQzZ8l51NXkNI6pOW-51">
          <mxGeometry x="150" width="50" height="50" as="geometry" />
        </mxCell>
        <mxCell id="4N7pQzZ8l51NXkNI6pOW-11" value="" style="rounded=0;whiteSpace=wrap;html=1;" vertex="1" parent="4N7pQzZ8l51NXkNI6pOW-51">
          <mxGeometry y="50" width="50" height="50" as="geometry" />
        </mxCell>
        <mxCell id="4N7pQzZ8l51NXkNI6pOW-12" value="" style="rounded=0;whiteSpace=wrap;html=1;" vertex="1" parent="4N7pQzZ8l51NXkNI6pOW-51">
          <mxGeometry x="50" y="50" width="50" height="50" as="geometry" />
        </mxCell>
        <mxCell id="4N7pQzZ8l51NXkNI6pOW-13" value="" style="rounded=0;whiteSpace=wrap;html=1;" vertex="1" parent="4N7pQzZ8l51NXkNI6pOW-51">
          <mxGeometry x="100" y="50" width="50" height="50" as="geometry" />
        </mxCell>
        <mxCell id="4N7pQzZ8l51NXkNI6pOW-14" value="" style="rounded=0;whiteSpace=wrap;html=1;" vertex="1" parent="4N7pQzZ8l51NXkNI6pOW-51">
          <mxGeometry x="100" y="50" width="50" height="50" as="geometry" />
        </mxCell>
        <mxCell id="4N7pQzZ8l51NXkNI6pOW-15" value="" style="rounded=0;whiteSpace=wrap;html=1;" vertex="1" parent="4N7pQzZ8l51NXkNI6pOW-51">
          <mxGeometry y="50" width="50" height="50" as="geometry" />
        </mxCell>
        <mxCell id="4N7pQzZ8l51NXkNI6pOW-16" value="" style="rounded=0;whiteSpace=wrap;html=1;" vertex="1" parent="4N7pQzZ8l51NXkNI6pOW-51">
          <mxGeometry x="200" y="50" width="50" height="50" as="geometry" />
        </mxCell>
        <mxCell id="4N7pQzZ8l51NXkNI6pOW-17" value="" style="rounded=0;whiteSpace=wrap;html=1;" vertex="1" parent="4N7pQzZ8l51NXkNI6pOW-51">
          <mxGeometry x="250" y="50" width="50" height="50" as="geometry" />
        </mxCell>
        <mxCell id="4N7pQzZ8l51NXkNI6pOW-18" value="" style="rounded=0;whiteSpace=wrap;html=1;" vertex="1" parent="4N7pQzZ8l51NXkNI6pOW-51">
          <mxGeometry x="150" y="50" width="50" height="50" as="geometry" />
        </mxCell>
        <mxCell id="4N7pQzZ8l51NXkNI6pOW-19" value="" style="rounded=0;whiteSpace=wrap;html=1;" vertex="1" parent="4N7pQzZ8l51NXkNI6pOW-51">
          <mxGeometry y="100" width="50" height="50" as="geometry" />
        </mxCell>
        <mxCell id="4N7pQzZ8l51NXkNI6pOW-20" value="" style="rounded=0;whiteSpace=wrap;html=1;" vertex="1" parent="4N7pQzZ8l51NXkNI6pOW-51">
          <mxGeometry x="50" y="100" width="50" height="50" as="geometry" />
        </mxCell>
        <mxCell id="4N7pQzZ8l51NXkNI6pOW-21" value="" style="rounded=0;whiteSpace=wrap;html=1;" vertex="1" parent="4N7pQzZ8l51NXkNI6pOW-51">
          <mxGeometry x="100" y="100" width="50" height="50" as="geometry" />
        </mxCell>
        <mxCell id="4N7pQzZ8l51NXkNI6pOW-22" value="" style="rounded=0;whiteSpace=wrap;html=1;" vertex="1" parent="4N7pQzZ8l51NXkNI6pOW-51">
          <mxGeometry x="100" y="100" width="50" height="50" as="geometry" />
        </mxCell>
        <mxCell id="4N7pQzZ8l51NXkNI6pOW-23" value="" style="rounded=0;whiteSpace=wrap;html=1;" vertex="1" parent="4N7pQzZ8l51NXkNI6pOW-51">
          <mxGeometry y="100" width="50" height="50" as="geometry" />
        </mxCell>
        <mxCell id="4N7pQzZ8l51NXkNI6pOW-24" value="" style="rounded=0;whiteSpace=wrap;html=1;" vertex="1" parent="4N7pQzZ8l51NXkNI6pOW-51">
          <mxGeometry x="200" y="100" width="50" height="50" as="geometry" />
        </mxCell>
        <mxCell id="4N7pQzZ8l51NXkNI6pOW-25" value="" style="rounded=0;whiteSpace=wrap;html=1;" vertex="1" parent="4N7pQzZ8l51NXkNI6pOW-51">
          <mxGeometry x="250" y="100" width="50" height="50" as="geometry" />
        </mxCell>
        <mxCell id="4N7pQzZ8l51NXkNI6pOW-26" value="" style="rounded=0;whiteSpace=wrap;html=1;" vertex="1" parent="4N7pQzZ8l51NXkNI6pOW-51">
          <mxGeometry x="150" y="100" width="50" height="50" as="geometry" />
        </mxCell>
        <mxCell id="4N7pQzZ8l51NXkNI6pOW-27" value="" style="rounded=0;whiteSpace=wrap;html=1;" vertex="1" parent="4N7pQzZ8l51NXkNI6pOW-51">
          <mxGeometry y="150" width="50" height="50" as="geometry" />
        </mxCell>
        <mxCell id="4N7pQzZ8l51NXkNI6pOW-28" value="" style="rounded=0;whiteSpace=wrap;html=1;" vertex="1" parent="4N7pQzZ8l51NXkNI6pOW-51">
          <mxGeometry x="50" y="150" width="50" height="50" as="geometry" />
        </mxCell>
        <mxCell id="4N7pQzZ8l51NXkNI6pOW-29" value="" style="rounded=0;whiteSpace=wrap;html=1;" vertex="1" parent="4N7pQzZ8l51NXkNI6pOW-51">
          <mxGeometry x="100" y="150" width="50" height="50" as="geometry" />
        </mxCell>
        <mxCell id="4N7pQzZ8l51NXkNI6pOW-30" value="" style="rounded=0;whiteSpace=wrap;html=1;" vertex="1" parent="4N7pQzZ8l51NXkNI6pOW-51">
          <mxGeometry x="100" y="150" width="50" height="50" as="geometry" />
        </mxCell>
        <mxCell id="4N7pQzZ8l51NXkNI6pOW-31" value="" style="rounded=0;whiteSpace=wrap;html=1;" vertex="1" parent="4N7pQzZ8l51NXkNI6pOW-51">
          <mxGeometry y="150" width="50" height="50" as="geometry" />
        </mxCell>
        <mxCell id="4N7pQzZ8l51NXkNI6pOW-32" value="" style="rounded=0;whiteSpace=wrap;html=1;" vertex="1" parent="4N7pQzZ8l51NXkNI6pOW-51">
          <mxGeometry x="200" y="150" width="50" height="50" as="geometry" />
        </mxCell>
        <mxCell id="4N7pQzZ8l51NXkNI6pOW-33" value="" style="rounded=0;whiteSpace=wrap;html=1;" vertex="1" parent="4N7pQzZ8l51NXkNI6pOW-51">
          <mxGeometry x="250" y="150" width="50" height="50" as="geometry" />
        </mxCell>
        <mxCell id="4N7pQzZ8l51NXkNI6pOW-34" value="" style="rounded=0;whiteSpace=wrap;html=1;" vertex="1" parent="4N7pQzZ8l51NXkNI6pOW-51">
          <mxGeometry x="150" y="150" width="50" height="50" as="geometry" />
        </mxCell>
        <mxCell id="4N7pQzZ8l51NXkNI6pOW-35" value="" style="rounded=0;whiteSpace=wrap;html=1;" vertex="1" parent="4N7pQzZ8l51NXkNI6pOW-51">
          <mxGeometry y="200" width="50" height="50" as="geometry" />
        </mxCell>
        <mxCell id="4N7pQzZ8l51NXkNI6pOW-36" value="" style="rounded=0;whiteSpace=wrap;html=1;" vertex="1" parent="4N7pQzZ8l51NXkNI6pOW-51">
          <mxGeometry x="50" y="200" width="50" height="50" as="geometry" />
        </mxCell>
        <mxCell id="4N7pQzZ8l51NXkNI6pOW-37" value="" style="rounded=0;whiteSpace=wrap;html=1;" vertex="1" parent="4N7pQzZ8l51NXkNI6pOW-51">
          <mxGeometry x="100" y="200" width="50" height="50" as="geometry" />
        </mxCell>
        <mxCell id="4N7pQzZ8l51NXkNI6pOW-38" value="" style="rounded=0;whiteSpace=wrap;html=1;" vertex="1" parent="4N7pQzZ8l51NXkNI6pOW-51">
          <mxGeometry x="100" y="200" width="50" height="50" as="geometry" />
        </mxCell>
        <mxCell id="4N7pQzZ8l51NXkNI6pOW-39" value="" style="rounded=0;whiteSpace=wrap;html=1;" vertex="1" parent="4N7pQzZ8l51NXkNI6pOW-51">
          <mxGeometry y="200" width="50" height="50" as="geometry" />
        </mxCell>
        <mxCell id="4N7pQzZ8l51NXkNI6pOW-40" value="" style="rounded=0;whiteSpace=wrap;html=1;" vertex="1" parent="4N7pQzZ8l51NXkNI6pOW-51">
          <mxGeometry x="200" y="200" width="50" height="50" as="geometry" />
        </mxCell>
        <mxCell id="4N7pQzZ8l51NXkNI6pOW-41" value="" style="rounded=0;whiteSpace=wrap;html=1;" vertex="1" parent="4N7pQzZ8l51NXkNI6pOW-51">
          <mxGeometry x="250" y="200" width="50" height="50" as="geometry" />
        </mxCell>
        <mxCell id="4N7pQzZ8l51NXkNI6pOW-42" value="" style="rounded=0;whiteSpace=wrap;html=1;" vertex="1" parent="4N7pQzZ8l51NXkNI6pOW-51">
          <mxGeometry x="150" y="200" width="50" height="50" as="geometry" />
        </mxCell>
        <mxCell id="4N7pQzZ8l51NXkNI6pOW-43" value="" style="rounded=0;whiteSpace=wrap;html=1;" vertex="1" parent="4N7pQzZ8l51NXkNI6pOW-51">
          <mxGeometry y="250" width="50" height="50" as="geometry" />
        </mxCell>
        <mxCell id="4N7pQzZ8l51NXkNI6pOW-44" value="" style="rounded=0;whiteSpace=wrap;html=1;" vertex="1" parent="4N7pQzZ8l51NXkNI6pOW-51">
          <mxGeometry x="50" y="250" width="50" height="50" as="geometry" />
        </mxCell>
        <mxCell id="4N7pQzZ8l51NXkNI6pOW-45" value="" style="rounded=0;whiteSpace=wrap;html=1;" vertex="1" parent="4N7pQzZ8l51NXkNI6pOW-51">
          <mxGeometry x="100" y="250" width="50" height="50" as="geometry" />
        </mxCell>
        <mxCell id="4N7pQzZ8l51NXkNI6pOW-46" value="" style="rounded=0;whiteSpace=wrap;html=1;" vertex="1" parent="4N7pQzZ8l51NXkNI6pOW-51">
          <mxGeometry x="100" y="250" width="50" height="50" as="geometry" />
        </mxCell>
        <mxCell id="4N7pQzZ8l51NXkNI6pOW-47" value="" style="rounded=0;whiteSpace=wrap;html=1;" vertex="1" parent="4N7pQzZ8l51NXkNI6pOW-51">
          <mxGeometry y="250" width="50" height="50" as="geometry" />
        </mxCell>
        <mxCell id="4N7pQzZ8l51NXkNI6pOW-48" value="" style="rounded=0;whiteSpace=wrap;html=1;" vertex="1" parent="4N7pQzZ8l51NXkNI6pOW-51">
          <mxGeometry x="200" y="250" width="50" height="50" as="geometry" />
        </mxCell>
        <mxCell id="4N7pQzZ8l51NXkNI6pOW-49" value="" style="rounded=0;whiteSpace=wrap;html=1;" vertex="1" parent="4N7pQzZ8l51NXkNI6pOW-51">
          <mxGeometry x="250" y="250" width="50" height="50" as="geometry" />
        </mxCell>
        <mxCell id="4N7pQzZ8l51NXkNI6pOW-50" value="" style="rounded=0;whiteSpace=wrap;html=1;" vertex="1" parent="4N7pQzZ8l51NXkNI6pOW-51">
          <mxGeometry x="150" y="250" width="50" height="50" as="geometry" />
        </mxCell>
        <mxCell id="4N7pQzZ8l51NXkNI6pOW-52" value="" style="ellipse;whiteSpace=wrap;html=1;aspect=fixed;fillColor=#ffe6cc;strokeColor=#d79b00;" vertex="1" parent="4N7pQzZ8l51NXkNI6pOW-51">
          <mxGeometry x="110" y="110" width="30" height="30" as="geometry" />
        </mxCell>
        <mxCell id="4N7pQzZ8l51NXkNI6pOW-54" value="" style="ellipse;whiteSpace=wrap;html=1;aspect=fixed;fillColor=#ffe6cc;strokeColor=#d79b00;" vertex="1" parent="1">
          <mxGeometry x="420" y="100" width="30" height="30" as="geometry" />
        </mxCell>
        <mxCell id="4N7pQzZ8l51NXkNI6pOW-55" value="&lt;b&gt;current player&lt;/b&gt;" style="text;html=1;strokeColor=none;fillColor=none;align=center;verticalAlign=middle;whiteSpace=wrap;rounded=0;" vertex="1" parent="1">
          <mxGeometry x="310" y="100" width="110" height="30" as="geometry" />
        </mxCell>
        <mxCell id="4N7pQzZ8l51NXkNI6pOW-56" value="" style="ellipse;whiteSpace=wrap;html=1;aspect=fixed;fillColor=#d5e8d4;strokeColor=#82b366;" vertex="1" parent="1">
          <mxGeometry x="420" y="60" width="30" height="30" as="geometry" />
        </mxCell>
        <mxCell id="4N7pQzZ8l51NXkNI6pOW-57" value="&lt;b&gt;opponent player&lt;/b&gt;" style="text;html=1;strokeColor=none;fillColor=none;align=center;verticalAlign=middle;whiteSpace=wrap;rounded=0;" vertex="1" parent="1">
          <mxGeometry x="301" y="60" width="110" height="30" as="geometry" />
        </mxCell>
      </root>
    </mxGraphModel>
  </diagram>
</mxfile>
